<svg width="138" height="26" viewBox="0 0 138 26" fill="none" xmlns="http://www.w3.org/2000/svg">
<path d="M22.7568 5.14554C24.7365 5.09414 26.1886 5.13004 27.945 6.30204C33.9165 10.2866 32.1321 19.3571 25.1298 20.8178C22.6298 21.3394 21.6249 20.5707 19.6156 19.1844L19.4638 19.2593L19.3436 19.6402C19.307 21.1476 19.5584 23.3629 19.163 24.7319C18.855 25.7986 16.597 25.4847 15.8984 25.1152C15.7126 22.5367 15.7533 18.4343 15.7554 15.7359C15.7579 12.5941 15.6498 8.75924 15.8243 5.68594C16.7866 5.25334 17.4406 5.28784 18.4599 5.34824C18.8581 6.02584 18.8605 6.15224 19.078 6.89764C20.2783 6.81004 20.6518 5.47034 22.7568 5.14554ZM24.4755 17.3926C26.8799 16.9117 28.4488 14.5855 27.993 12.1773C27.5372 9.76914 25.2267 8.17654 22.8127 8.60684C21.2284 8.88914 19.9179 10.0004 19.381 11.5168C18.8441 13.0332 19.1636 14.721 20.2176 15.9366C21.2715 17.1522 22.8975 17.7082 24.4755 17.3926Z" fill="white"/>
<path d="M100.281 5.15642C103.288 4.65352 105.194 6.83412 105.886 6.77502C106.06 6.10962 106.033 5.96713 106.459 5.41103C107.729 5.22593 108.158 5.18402 109.227 5.85193L109.226 15.4455C109.227 16.9652 109.286 18.6094 109.139 20.1137C109.051 21.0039 106.592 20.6262 105.995 20.5108C105.844 20.102 105.707 19.5539 105.371 19.3272C105.074 19.3375 104.667 19.7653 104.419 19.9823C103.912 20.5553 102.438 20.7941 101.664 20.8954C97.7564 21.4074 93.7194 17.5446 93.2784 13.7657C92.8094 9.75432 96.1064 5.56712 100.281 5.15642ZM102.357 17.3143C104.745 16.6831 106.17 14.236 105.537 11.849C104.905 9.46213 102.457 8.03943 100.069 8.67133C97.6814 9.30333 96.2584 11.7499 96.8914 14.1364C97.5224 16.5229 99.9704 17.9456 102.357 17.3143Z" fill="white"/>
<path d="M67.5666 5.18825C71.8626 4.71725 75.7366 7.79205 76.2506 12.0809C76.7646 16.3698 73.7276 20.2726 69.4426 20.8297C66.6326 21.1951 63.8406 20.0237 62.1346 17.762C60.4276 15.5001 60.0676 12.4965 61.1916 9.89556C62.3146 7.29475 64.7496 5.49725 67.5666 5.18825ZM69.3736 17.4172C70.6066 16.9824 71.6126 16.3142 72.1816 15.1018C73.1506 13.0358 72.4776 9.91325 70.2906 8.90395C69.3556 8.47255 68.4386 8.49835 67.4516 8.58825C64.7976 9.25395 63.7646 12.0088 64.3876 14.4702C64.6446 15.5141 65.3096 16.4114 66.2346 16.9609C67.2286 17.5413 68.2666 17.5779 69.3736 17.4172Z" fill="white"/>
<path d="M6.6098 2.4375C6.8063 2.4393 7.0027 2.4486 7.1984 2.4654C8.8299 2.613 11.3422 3.5758 12.4927 4.7969C13.5099 5.8763 11.7392 7.099 10.9582 7.7347C8.721 6.3906 8.2993 5.4343 5.4607 6.0814C4.831 6.6621 4.6585 6.8816 4.3148 7.6298L4.91 8.594C8.3485 10.2741 13.9741 10.7913 13.5977 15.6237C13.3033 19.4022 9.5888 21.0092 6.2751 20.9091C4.1216 20.5618 0.8184 19.3533 0 17.1525C0.1335 16.9399 0.2926 16.7423 0.4538 16.5503C0.7886 16.1517 1.3322 15.4815 1.8462 15.3467C2.7416 15.1119 5.1733 17.6839 7.4075 17.4738C8.2339 17.3961 8.9509 16.956 9.4749 16.3213C9.8772 15.8339 9.8431 15.3946 9.7823 14.8034C7.8579 11.986 1.0663 13.0991 0.697498 7.9091C0.429298 4.1358 3.443 2.7628 6.6098 2.4375Z" fill="white"/>
<path d="M114.15 5.36125C114.353 5.59955 114.724 5.98735 114.81 6.26505L114.684 6.77615L114.764 6.84375C115.171 6.70265 116.03 6.19805 116.404 5.94635C119.409 3.91765 123.662 5.80085 124.78 9.02315C125.001 9.65545 125.143 10.3125 125.204 10.9797C125.289 11.9507 125.225 14.0944 125.216 15.1602C125.206 16.5473 125.357 19.2064 125.185 20.4551C124.354 20.6638 122.609 20.8696 121.867 20.4453C121.534 20.1064 121.565 19.4892 121.567 19.0387C121.576 17.1865 121.606 15.3354 121.608 13.4829C121.61 12.0868 121.749 10.5321 120.681 9.44645C119.573 8.31925 117.275 8.40855 116.204 9.55325C114.869 10.9418 115.076 13.1154 115.084 14.8853L115.105 18.1854C115.112 18.803 115.246 20.0021 114.94 20.4697C114.471 20.7841 112.826 20.7156 112.278 20.6123C112.14 20.5847 112.004 20.5447 111.872 20.4926C111.666 19.7423 112.001 17.3627 112.005 16.3319C112.018 13.7879 112.089 11.2121 111.99 8.67125C111.951 7.64085 111.679 6.64705 111.694 5.61995C112.333 5.23965 113.418 5.28195 114.15 5.36125Z" fill="white"/>
<path d="M33.4403 5.35036C34.544 5.28476 35.0412 5.14286 35.8842 5.87006C36.779 8.77066 38.1828 12.305 39.2255 15.2442C40.3251 13.3552 41.82 7.73576 42.8976 5.63616C43.1309 5.18156 45.3243 5.32726 46.0173 5.35026L46.4869 6.10886C45.7228 8.11586 44.935 10.0824 44.2128 12.1126C43.8387 13.1642 43.1961 14.0727 42.9051 15.2546C42.5788 15.8957 42.1794 17.015 41.9085 17.7166L39.9982 22.7974C39.6736 23.6604 39.3464 24.6226 38.9143 25.43C37.8054 25.4084 36.5716 25.565 35.5016 25.3018C35.8118 23.3813 37.0021 21.4653 37.463 19.6206C37.6907 18.7095 36.3614 16.115 36.0214 15.221C35.3455 13.4642 34.5827 11.7327 33.8985 9.98066C33.5348 9.04936 31.9611 6.44266 32.4542 5.48786C32.6525 5.32986 33.1615 5.35796 33.4403 5.35036Z" fill="white"/>
<path d="M84.7616 6.73723C85.1866 6.65983 85.8226 6.63833 86.1416 6.44153C86.3296 6.17343 86.3446 4.97133 86.4196 4.54543C86.8716 1.97873 88.9016 -0.30717 91.6946 0.0338796C91.8706 0.0552996 91.8916 0.16593 91.9826 0.30673C91.9656 1.13353 92.0496 2.10093 92.1016 2.93703C90.1966 3.93643 89.7976 4.25613 89.8596 6.46363C90.5366 6.53993 91.1266 6.60003 91.8066 6.63123C91.9736 6.86343 92.2326 7.25083 92.4056 7.45943C92.4186 8.13133 92.4206 8.64873 92.3736 9.31763L91.9526 9.95013C91.3226 9.96623 90.6636 9.99273 90.0366 9.98913C89.9976 10.2271 89.8796 10.8467 89.8666 11.0574C89.6666 11.999 89.6726 18.4785 89.8596 19.395L89.8186 20.4109C89.1576 20.7306 87.4266 20.88 86.7676 20.4988C86.4626 20.3222 86.4306 20.0618 86.3606 19.7482C86.2846 18.9441 86.6246 18.9219 86.6336 18.217C86.6606 16.1428 86.8486 13.9415 86.5366 11.8897C86.5066 11.6918 86.2196 9.99803 86.2316 10.0208L86.0446 10.02L84.6226 9.85283C84.3386 8.74103 84.2816 7.78913 84.7616 6.73723Z" fill="white"/>
<path d="M50.9083 5.34253C51.2385 5.64123 51.8779 6.29333 52.2494 6.40463C52.8133 6.10243 53.4351 5.58043 53.9348 5.31213C54.5461 4.98373 56.3078 5.16803 56.9481 5.40873C57.8887 5.76203 59.8745 6.32393 59.3815 7.65183C59.1335 8.32293 58.5655 8.88653 58.3375 9.51773C56.7189 9.06423 55.181 7.96453 53.4746 8.85223C52.7298 9.23963 52.2907 10.3192 52.2213 11.1072C52.1967 11.2603 52.0992 11.803 52.0966 11.9267C51.9622 12.6184 51.9429 18.5868 52.0905 19.2559C52.0632 19.6615 52.0421 20.0836 51.9982 20.4866C50.9636 20.6624 49.59 20.9156 48.6714 20.2866C48.5976 20.4536 48.8795 18.1759 48.8787 18.1882C48.9551 14.8934 48.9015 11.5863 48.8874 8.28983C48.8839 7.37603 48.5809 6.68633 48.6459 5.76443C49.4197 5.19473 49.9545 5.29463 50.9083 5.34253Z" fill="white"/>
<path d="M111.695 5.62012C111.68 6.64722 111.952 7.64102 111.991 8.67142C112.09 11.2122 112.019 13.7881 112.006 16.332C112.002 17.3629 111.667 19.7424 111.873 20.4927C111.774 20.4297 111.671 20.3329 111.581 20.2543C111.352 19.0731 111.349 6.28892 111.695 5.62012Z" fill="white"/>
<path d="M48.6458 5.76367C48.5808 6.68567 48.8838 7.37537 48.8873 8.28917C48.9014 11.5856 48.955 14.8928 48.8785 18.1876C48.8794 18.1753 48.5975 20.453 48.6713 20.286L48.529 20.2503L48.4719 19.5494C48.4122 18.8892 48.3665 16.2078 48.4131 15.6767C48.5141 14.5234 48.1759 6.32637 48.6458 5.76367Z" fill="white"/>
<path d="M86.0444 10.0195L86.2324 10.0203C86.2194 9.99763 86.5064 11.6913 86.5364 11.8893C86.8484 13.941 86.6604 16.1423 86.6344 18.2165C86.6244 18.9214 86.2844 18.9436 86.3614 19.7477C85.8154 18.302 86.4764 10.715 86.0444 10.0195Z" fill="white"/>
<path d="M91.9825 0.306421C92.2985 0.224621 92.1915 0.205721 92.4405 0.332421C92.6745 0.772121 92.7385 2.88722 92.1015 2.93672C92.0495 2.10072 91.9665 1.13332 91.9825 0.306421Z" fill="white"/>
<path d="M133.715 17.1692C134.688 15.818 134.148 15.1278 132.641 14.6664C130.151 13.9032 127.463 13.3365 126.922 10.2729C126.095 5.52114 132.163 3.76204 135.538 6.07514C137.057 7.11684 138.246 8.63084 135.202 9.57014C134.593 9.75824 133.517 7.90494 132.289 8.25454C131.395 8.50904 130.22 8.71984 130.362 9.95724C131.745 11.7953 136.876 11.1219 137.574 14.9947C137.579 15.3454 137.575 16.8722 137.623 17.1744C136.762 21.6653 129.399 22.0737 127.003 18.6959C126.584 18.1054 126.457 17.7358 126.546 17.0117C126.722 16.6619 127.754 16.1396 128.135 15.9449C128.592 15.7225 129.006 16.1785 129.291 16.4821C130.585 17.8666 132.036 17.8405 133.715 17.1692Z" fill="white"/>
</svg>
